<svg width="26px" height="26px" viewBox="0 0 26 26" version="1.1" xmlns="http://www.w3.org/2000/svg"><path fill="#13ab41" d="M20.655 3.25A1.65 1.65 0 0 1 22.3 4.902V6.15a.75.75 0 0 1-1.5 0V4.902a.15.15 0 0 0-.145-.152H5.345a.147.147 0 0 0-.145.143v16.214a.15.15 0 0 0 .142.143h.764a.75.75 0 1 1 0 1.5h-.764A1.648 1.648 0 0 1 3.7 21.107V4.893c0-.907.741-1.643 1.645-1.643h15.31zm-.005 5.4c.909 0 1.65.739 1.65 1.643v1.203a.75.75 0 0 1-1.5 0v-1.203c0-.074-.069-.143-.15-.143H10.48a.15.15 0 0 0-.15.156v10.788c0 .089.066.156.144.156h1.062a.75.75 0 0 1 0 1.5h-1.062a1.65 1.65 0 0 1-1.644-1.656V10.306a1.65 1.65 0 0 1 1.65-1.656h10.17z"/><path fill="#212121" fill-rule="nonzero" d="M19.01 21.25h-3.204a.251.251 0 0 1-.256-.253v-5.099c0-.143.11-.253.246-.253h4.758a.24.24 0 0 1 .246.24v3.123a.75.75 0 0 0 1.5 0v-3.123a1.74 1.74 0 0 0-1.746-1.74h-4.758c-.968 0-1.746.785-1.746 1.753v5.099c0 .972.786 1.753 1.756 1.753h3.204a.75.75 0 0 0 0-1.5z"/></svg>
