<svg width="26px" height="26px" viewBox="0 0 26 26" version="1.1" xmlns="http://www.w3.org/2000/svg"><path fill="#212121" d="M17.5 15.75a.754.754 0 0 0-.75.75v5c0 .411.339.75.75.75s.75-.339.75-.75v-5a.754.754 0 0 0-.75-.75zm-5 0a.754.754 0 0 0-.75.75v5c0 .411.339.75.75.75s.75-.339.75-.75v-5a.754.754 0 0 0-.75-.75zm-3.52-3.73a.75.75 0 0 0 1.061 0l5.575-5.575a1.253 1.253 0 0 1 1.773.005l2.161 2.16a1.26 1.26 0 0 1 .008 1.771l-.56.56a.752.752 0 0 0-.239.549c0 .411.339.75.75.75a.752.752 0 0 0 .549-.239l.56-.559a2.767 2.767 0 0 0-.007-3.892L18.45 5.39a2.753 2.753 0 0 0-3.895-.005L8.981 10.96a.753.753 0 0 0 0 1.06H8.98zM5.498 1.75h4.004a2.762 2.762 0 0 1 2.748 2.749v1.088c0 .411-.339.75-.75.75a.754.754 0 0 1-.75-.75v-1.08-.008c0-.685-.563-1.248-1.248-1.249H5.494A1.25 1.25 0 0 0 4.25 4.494v6.966c0 .411-.339.75-.75.75a.754.754 0 0 1-.75-.75V4.5v-.006A2.758 2.758 0 0 1 5.494 1.75h.004z"/><path fill="#13ab41" d="M21.505 24.25H4.495a1.755 1.755 0 0 1-1.745-1.746V15.498a1.759 1.759 0 0 1 1.745-1.748h17.01a1.755 1.755 0 0 1 1.745 1.746V22.502a1.759 1.759 0 0 1-1.745 1.748zm0-1.5a.25.25 0 0 0 .245-.248v-7.005-.001a.247.247 0 0 0-.245-.246H4.495a.251.251 0 0 0-.245.248V22.504c0 .135.11.245.245.246h17.01zM6.5 19.5a1 1 0 1 1 0 2 1 1 0 0 1 0-2z"/></svg>
