<svg xmlns="http://www.w3.org/2000/svg" width="26" height="26" viewBox="0 0 26 26"><path fill="#13ab41" fill-rule="nonzero" d="M22.63 16.471a2.732 2.732 0 0 0-1.319-1.848l-.671-.388c.07-.408.106-.821.11-1.235a7.745 7.745 0 0 0-.11-1.235l.671-.388a2.753 2.753 0 0 0 1.359-2.372 2.763 2.763 0 0 0-2.75-2.75c-.476 0-.945.123-1.359.359l-.672.388a7.732 7.732 0 0 0-2.139-1.236V4.99A2.763 2.763 0 0 0 13 2.24a2.763 2.763 0 0 0-2.75 2.75v.775a7.732 7.732 0 0 0-2.139 1.236l-.672-.388a2.745 2.745 0 0 0-1.359-.359 2.763 2.763 0 0 0-2.75 2.75c0 .974.518 1.879 1.359 2.372l.671.388c-.07.408-.106.822-.11 1.236.004.414.04.827.11 1.235l-.671.388a2.753 2.753 0 0 0-1.359 2.372 2.763 2.763 0 0 0 2.75 2.75c.476 0 .945-.123 1.359-.359l.672-.388a7.732 7.732 0 0 0 2.139 1.236v.775a2.763 2.763 0 0 0 2.75 2.75 2.763 2.763 0 0 0 2.75-2.75V19.71a.754.754 0 0 0-.75-.75.754.754 0 0 0-.75.75v1.3c0 .686-.564 1.25-1.25 1.25s-1.25-.564-1.25-1.25v-1.3a.752.752 0 0 0-.536-.719 6.25 6.25 0 0 1-2.508-1.45.752.752 0 0 0-.89-.104l-1.127.65a1.25 1.25 0 0 1-1.25-2.165l1.125-.65a.752.752 0 0 0 .355-.822 6.314 6.314 0 0 1 0-2.9.752.752 0 0 0-.355-.822l-1.125-.65A1.251 1.251 0 0 1 4.821 9a1.25 1.25 0 0 1 1.868-1.087l1.126.65c.286.165.65.123.89-.104a6.253 6.253 0 0 1 2.509-1.45.751.751 0 0 0 .536-.72V4.992c0-.686.564-1.25 1.25-1.25s1.25.564 1.25 1.25V6.29c0 .331.219.625.536.719a6.25 6.25 0 0 1 2.508 1.45c.24.227.604.269.89.104l1.127-.65a1.25 1.25 0 0 1 1.25 2.165l-1.125.65a.752.752 0 0 0-.355.822 6.314 6.314 0 0 1 0 2.9.752.752 0 0 0 .355.822l1.125.65a1.233 1.233 0 0 1 .62 1.074 1.26 1.26 0 0 1-1.254 1.254c-.216 0-.428-.056-.616-.162l-1.126-.651a.754.754 0 0 0-1.129.647c0 .269.145.519.379.652l1.126.65a2.75 2.75 0 0 0 1.366.363 2.767 2.767 0 0 0 2.704-3.278h-.001z"/><path fill="#212121" fill-rule="nonzero" d="M10.499 11.175a.75.75 0 0 0-.977.414 3.763 3.763 0 0 0-.276 1.413 3.77 3.77 0 0 0 3.752 3.752 3.77 3.77 0 0 0 3.752-3.752A3.77 3.77 0 0 0 13 9.25a.754.754 0 0 0-.75.75c0 .411.339.75.75.75a2.25 2.25 0 0 1 2.228 2.239 2.25 2.25 0 0 1-2.239 2.239 2.25 2.25 0 0 1-2.239-2.239 2.203 2.203 0 0 1 .162-.837.752.752 0 0 0-.413-.977z"/></svg>
